<svg xmlns="http://www.w3.org/2000/svg" xmlns:xlink="http://www.w3.org/1999/xlink" width="1080" zoomAndPan="magnify" viewBox="0 0 810 809.999993" height="1080" preserveAspectRatio="xMidYMid meet" version="1.0"><defs><clipPath id="971d51d9af"><path d="M 63.59375 81 L 746 81 L 746 763.5 L 63.59375 763.5 Z M 63.59375 81 " clip-rule="nonzero"/></clipPath></defs><g clip-path="url(#971d51d9af)"><path fill="#252825" d="M 282.757812 740.832031 C 240.238281 724.574219 201.472656 700.191406 168.332031 668.300781 C 135.191406 636.410156 109.242188 598.894531 91.109375 557 C 73.601562 516.355469 64.53125 473.523438 63.59375 429.128906 C 62.65625 384.734375 70.160156 341.589844 86.105469 300.320312 C 102.363281 257.800781 126.75 219.03125 158.640625 185.890625 C 190.527344 152.75 228.046875 126.800781 269.941406 108.667969 C 310.582031 91.160156 353.414062 82.09375 397.8125 81.15625 C 442.207031 80.21875 485.351562 87.722656 526.621094 103.667969 C 569.140625 119.925781 607.90625 144.308594 641.046875 176.199219 C 674.1875 208.089844 700.136719 245.605469 718.269531 287.5 C 735.777344 328.144531 744.84375 370.976562 745.78125 415.371094 C 746.71875 459.765625 739.21875 502.910156 723.273438 544.179688 C 707.015625 586.699219 682.628906 625.46875 650.738281 658.609375 C 618.847656 691.75 581.332031 717.699219 539.4375 735.832031 C 498.792969 753.339844 455.960938 762.40625 411.566406 763.34375 C 409.066406 763.34375 406.878906 763.34375 404.375 763.34375 C 362.480469 763.34375 321.527344 755.839844 282.757812 740.832031 Z M 398.4375 118.984375 C 317.460938 120.550781 241.800781 153.691406 185.839844 212.152344 C 129.875 270.617188 99.863281 347.527344 101.425781 428.503906 C 102.988281 509.476562 136.128906 585.136719 194.59375 641.101562 C 251.492188 695.8125 325.902344 725.515625 404.6875 725.515625 C 406.878906 725.515625 408.753906 725.515625 410.941406 725.515625 C 491.917969 723.949219 567.574219 690.808594 623.539062 632.347656 C 679.503906 573.882812 709.515625 496.972656 707.953125 415.996094 C 706.390625 335.023438 673.25 259.363281 614.785156 203.398438 C 557.882812 148.6875 483.476562 118.984375 404.6875 118.984375 C 325.902344 118.984375 400.625 118.984375 398.4375 118.984375 Z M 398.4375 118.984375 " fill-opacity="1" fill-rule="nonzero"/></g><path fill="#000000" d="M 504.257812 592.160156 C 512.222656 610.601562 510.046875 629.828125 510.167969 648.816406 C 510.292969 667.75 510.289062 686.683594 510.15625 705.617188 C 510.050781 719.695312 498.722656 729.082031 485.664062 726.214844 C 476.554688 724.214844 470.15625 716.277344 470.136719 706.476562 C 470.078125 679.71875 469.980469 652.957031 470.253906 626.203125 C 470.390625 612.867188 466.46875 601.296875 457.46875 591.5 C 451.675781 585.191406 449.566406 577.996094 452.667969 569.890625 C 455.675781 562.03125 461.820312 558.386719 470.085938 556.847656 C 485.238281 554.027344 500.621094 551.59375 515.238281 546.902344 C 549.003906 536.0625 568.773438 511.929688 575.988281 477.527344 C 580.410156 456.4375 582.46875 435.136719 577.066406 413.832031 C 573.582031 400.097656 567.078125 387.84375 557.414062 377.507812 C 550.34375 369.949219 548.65625 361.941406 552.152344 352.136719 C 557.367188 337.527344 557.902344 322.527344 554.0625 306.492188 C 548.800781 308.285156 543.578125 309.421875 538.964844 311.761719 C 527.292969 317.683594 515.617188 323.699219 504.472656 330.546875 C 497 335.140625 489.875 336.511719 481.382812 334.3125 C 440.476562 323.71875 399.542969 323.734375 358.578125 334.363281 C 350.277344 336.519531 343.109375 335.457031 335.953125 330.605469 C 321.960938 321.117188 307.238281 312.914062 290.894531 308.054688 C 289.433594 307.621094 287.933594 307.335938 286.097656 306.894531 C 283.058594 318.089844 282.816406 329.058594 284.882812 340.054688 C 285.800781 344.945312 287.273438 349.753906 288.78125 354.507812 C 291.210938 362.160156 290.191406 369.179688 284.746094 375.070312 C 266.914062 394.351562 258.996094 417.109375 260.035156 443.238281 C 260.753906 461.3125 262.945312 479.082031 269.675781 496.023438 C 280.589844 523.476562 301.382812 540.132812 328.90625 548.511719 C 341.835938 552.445312 355.289062 554.828125 368.640625 557.121094 C 382.195312 559.445312 390.214844 567.785156 388.425781 580.078125 C 387.855469 584 385.824219 588.257812 383.195312 591.238281 C 373.6875 602.027344 369.628906 614.304688 369.847656 628.640625 C 370.238281 654.457031 370.039062 680.277344 369.941406 706.097656 C 369.894531 717.949219 361.414062 726.6875 350.226562 726.835938 C 338.964844 726.988281 330.261719 718.042969 330.148438 705.980469 C 330.039062 694.742188 330.125 683.496094 330.125 672.847656 C 319.902344 672.847656 310.085938 673.375 300.347656 672.742188 C 277.121094 671.230469 257.777344 661.089844 242.003906 644.257812 C 234.851562 636.625 228.4375 628.300781 221.773438 620.222656 C 216.265625 613.550781 210.539062 607.640625 201.835938 604.625 C 192.179688 601.28125 187.761719 589.792969 191.089844 580.085938 C 194.507812 570.121094 204.84375 564.636719 215.097656 567.269531 C 228.34375 570.671875 238.675781 578.539062 247.421875 588.648438 C 253.761719 595.976562 259.847656 603.539062 265.832031 611.160156 C 282.59375 632.5 304.464844 636.933594 329.554688 630.925781 C 330.023438 624.25 330.085938 617.671875 331.050781 611.226562 C 331.996094 604.9375 333.863281 598.78125 335.363281 592.417969 C 328.222656 590.238281 320.726562 588.222656 313.410156 585.671875 C 259.929688 567.039062 230.890625 528.4375 222.625 473.289062 C 219.367188 451.554688 218.257812 429.722656 223.273438 407.988281 C 227.265625 390.691406 234.410156 374.855469 244.957031 360.601562 C 246.773438 358.148438 247.421875 355.976562 246.726562 352.914062 C 241.09375 328.09375 243.140625 303.84375 252.605469 280.230469 C 256.535156 270.429688 263.03125 266.488281 273.5 265.996094 C 298.210938 264.839844 319.789062 274.335938 340.097656 286.519531 C 349.828125 292.359375 358.433594 293.414062 369.292969 291.253906 C 406.375 283.882812 443.558594 284.953125 480.5 292.914062 C 484.757812 293.832031 488.035156 293.410156 491.804688 291.101562 C 510.128906 279.871094 529.214844 270.1875 550.714844 266.777344 C 557.277344 265.734375 564.15625 265.734375 570.792969 266.335938 C 578.710938 267.050781 584.179688 271.851562 587.199219 279.296875 C 596.9375 303.328125 599.132812 327.976562 593.554688 353.351562 C 593.125 355.308594 593.609375 358.09375 594.773438 359.691406 C 614.324219 386.507812 621.941406 416.589844 619.9375 449.449219 C 618.609375 471.269531 615.25 492.652344 606.707031 512.9375 C 590.554688 551.300781 561.261719 574.75 522.28125 587.074219 C 516.511719 588.894531 510.632812 590.371094 504.257812 592.160156 Z M 504.257812 592.160156 " fill-opacity="1" fill-rule="nonzero"/></svg>