<svg xmlns="http://www.w3.org/2000/svg" xmlns:xlink="http://www.w3.org/1999/xlink" width="1080" zoomAndPan="magnify" viewBox="0 0 810 809.999993" height="1080" preserveAspectRatio="xMidYMid meet" version="1.0"><defs><clipPath id="038e79d982"><path d="M 101 192.253906 L 709 192.253906 L 709 613.003906 L 101 613.003906 Z M 101 192.253906 " clip-rule="nonzero"/></clipPath><clipPath id="98d8a33334"><path d="M 100 192.253906 L 261.511719 192.253906 L 261.511719 613.003906 L 100 613.003906 Z M 100 192.253906 " clip-rule="nonzero"/></clipPath><clipPath id="4ebc0d7dbd"><path d="M 418.007812 192.253906 L 580.007812 192.253906 L 580.007812 613.003906 L 418.007812 613.003906 Z M 418.007812 192.253906 " clip-rule="nonzero"/></clipPath><clipPath id="9a160ccdb6"><path d="M 572.035156 192.253906 L 709 192.253906 L 709 613.003906 L 572.035156 613.003906 Z M 572.035156 192.253906 " clip-rule="nonzero"/></clipPath></defs><g clip-path="url(#038e79d982)"><path fill="#ea4335" d="M 499.648438 416.457031 L 420.746094 490.007812 C 411.785156 498.375 397.867188 498.375 388.894531 490.007812 L 315.4375 421.527344 L 142.707031 607.214844 C 151.246094 610.960938 160.675781 613.054688 170.605469 613.054688 C 170.605469 613.054688 639.046875 613.054688 639.046875 613.054688 C 649.152344 613.054688 658.761719 610.886719 667.421875 606.996094 Z M 109.378906 229.40625 L 281.273438 389.675781 L 108.753906 575.132812 C 103.933594 565.691406 101.230469 555 101.230469 543.675781 C 101.230469 543.675781 101.230469 262.058594 101.230469 262.058594 C 101.230469 250.253906 104.175781 239.136719 109.378906 229.40625 Z M 700.273438 229.40625 C 705.476562 239.136719 708.421875 250.253906 708.421875 262.058594 L 708.421875 543.675781 C 708.421875 554.792969 705.808594 565.308594 701.144531 574.621094 L 533.820312 384.585938 Z M 665.546875 197.929688 L 404.820312 441 L 144.105469 197.929688 C 152.265625 194.546875 161.214844 192.683594 170.605469 192.683594 C 170.605469 192.683594 639.046875 192.683594 639.046875 192.683594 C 648.433594 192.683594 657.386719 194.546875 665.546875 197.929688 Z M 665.546875 197.929688 " fill-opacity="1" fill-rule="evenodd"/></g><g clip-path="url(#98d8a33334)"><path fill="#4285f4" d="M 498.898438 416.457031 L 419.996094 490.007812 C 411.035156 498.375 397.117188 498.375 388.144531 490.007812 L 314.6875 421.527344 L 141.957031 607.214844 C 150.496094 610.960938 159.925781 613.054688 169.855469 613.054688 C 169.855469 613.054688 638.296875 613.054688 638.296875 613.054688 C 648.402344 613.054688 658.011719 610.886719 666.671875 606.996094 Z M 108.628906 229.40625 L 280.523438 389.675781 L 108.003906 575.132812 C 103.183594 565.691406 100.480469 555 100.480469 543.675781 C 100.480469 543.675781 100.480469 262.058594 100.480469 262.058594 C 100.480469 250.253906 103.425781 239.136719 108.628906 229.40625 Z M 699.523438 229.40625 C 704.726562 239.136719 707.671875 250.253906 707.671875 262.058594 L 707.671875 543.675781 C 707.671875 554.792969 705.058594 565.308594 700.394531 574.621094 L 533.070312 384.585938 Z M 664.796875 197.929688 L 404.070312 441 L 143.355469 197.929688 C 151.515625 194.546875 160.464844 192.683594 169.855469 192.683594 C 169.855469 192.683594 638.296875 192.683594 638.296875 192.683594 C 647.683594 192.683594 656.636719 194.546875 664.796875 197.929688 Z M 664.796875 197.929688 " fill-opacity="1" fill-rule="evenodd"/></g><g clip-path="url(#4ebc0d7dbd)"><path fill="#fbbc05" d="M 499.648438 416.457031 L 420.746094 490.007812 C 411.785156 498.375 397.867188 498.375 388.894531 490.007812 L 315.4375 421.527344 L 142.707031 607.214844 C 151.246094 610.960938 160.675781 613.054688 170.605469 613.054688 C 170.605469 613.054688 639.046875 613.054688 639.046875 613.054688 C 649.152344 613.054688 658.761719 610.886719 667.421875 606.996094 Z M 109.378906 229.40625 L 281.273438 389.675781 L 108.753906 575.132812 C 103.933594 565.691406 101.230469 555 101.230469 543.675781 C 101.230469 543.675781 101.230469 262.058594 101.230469 262.058594 C 101.230469 250.253906 104.175781 239.136719 109.378906 229.40625 Z M 700.273438 229.40625 C 705.476562 239.136719 708.421875 250.253906 708.421875 262.058594 L 708.421875 543.675781 C 708.421875 554.792969 705.808594 565.308594 701.144531 574.621094 L 533.820312 384.585938 Z M 665.546875 197.929688 L 404.820312 441 L 144.105469 197.929688 C 152.265625 194.546875 161.214844 192.683594 170.605469 192.683594 C 170.605469 192.683594 639.046875 192.683594 639.046875 192.683594 C 648.433594 192.683594 657.386719 194.546875 665.546875 197.929688 Z M 665.546875 197.929688 " fill-opacity="1" fill-rule="evenodd"/></g><g clip-path="url(#9a160ccdb6)"><path fill="#34a853" d="M 499.648438 416.457031 L 420.746094 490.007812 C 411.785156 498.375 397.867188 498.375 388.894531 490.007812 L 315.4375 421.527344 L 142.707031 607.214844 C 151.246094 610.960938 160.675781 613.054688 170.605469 613.054688 C 170.605469 613.054688 639.046875 613.054688 639.046875 613.054688 C 649.152344 613.054688 658.761719 610.886719 667.421875 606.996094 Z M 109.378906 229.40625 L 281.273438 389.675781 L 108.753906 575.132812 C 103.933594 565.691406 101.230469 555 101.230469 543.675781 C 101.230469 543.675781 101.230469 262.058594 101.230469 262.058594 C 101.230469 250.253906 104.175781 239.136719 109.378906 229.40625 Z M 700.273438 229.40625 C 705.476562 239.136719 708.421875 250.253906 708.421875 262.058594 L 708.421875 543.675781 C 708.421875 554.792969 705.808594 565.308594 701.144531 574.621094 L 533.820312 384.585938 Z M 665.546875 197.929688 L 404.820312 441 L 144.105469 197.929688 C 152.265625 194.546875 161.214844 192.683594 170.605469 192.683594 C 170.605469 192.683594 639.046875 192.683594 639.046875 192.683594 C 648.433594 192.683594 657.386719 194.546875 665.546875 197.929688 Z M 665.546875 197.929688 " fill-opacity="1" fill-rule="evenodd"/></g></svg>