<svg xmlns="http://www.w3.org/2000/svg" xmlns:xlink="http://www.w3.org/1999/xlink" width="1080" zoomAndPan="magnify" viewBox="0 0 810 809.999993" height="1080" preserveAspectRatio="xMidYMid meet" version="1.0"><defs><clipPath id="7a9f8de97d"><path d="M 4.261719 0 L 809.761719 0 L 809.761719 810 L 4.261719 810 Z M 4.261719 0 " clip-rule="nonzero"/></clipPath></defs><g clip-path="url(#7a9f8de97d)"><rect x="-81" width="972" fill="#fcfcfc" y="-80.999999" height="971.999992" fill-opacity="1"/></g><path fill="#100f0d" d="M 675.414062 301.136719 L 675.414062 538.171875 C 675.414062 621.503906 607.855469 689.0625 524.539062 689.0625 L 268.1875 689.0625 C 195.535156 689.0625 136.644531 630.160156 136.644531 557.503906 L 136.644531 301.136719 C 136.644531 217.796875 204.203125 150.234375 287.519531 150.234375 L 524.539062 150.234375 C 607.855469 150.234375 675.414062 217.796875 675.414062 301.136719 " fill-opacity="1" fill-rule="nonzero"/><path fill="#ffffff" d="M 292.6875 270.664062 C 312.488281 270.664062 328.535156 286.746094 328.535156 306.519531 C 328.535156 326.335938 312.488281 342.40625 292.6875 342.40625 C 272.828125 342.40625 256.8125 326.335938 256.8125 306.519531 C 256.8125 286.746094 272.828125 270.664062 292.6875 270.664062 M 261.722656 369.609375 L 323.628906 369.609375 L 323.628906 568.632812 L 261.722656 568.632812 L 261.722656 369.609375 " fill-opacity="1" fill-rule="nonzero"/><path fill="#ffffff" d="M 362.441406 369.609375 L 421.738281 369.609375 L 421.738281 396.808594 L 422.574219 396.808594 C 430.820312 381.15625 451.011719 364.660156 481.105469 364.660156 C 543.675781 364.660156 555.242188 405.863281 555.242188 459.472656 L 555.242188 568.632812 L 493.46875 568.632812 L 493.46875 471.867188 C 493.46875 448.773438 493.015625 419.074219 461.3125 419.074219 C 429.125 419.074219 424.21875 444.21875 424.21875 470.179688 L 424.21875 568.632812 L 362.441406 568.632812 L 362.441406 369.609375 " fill-opacity="1" fill-rule="nonzero"/></svg>