<svg xmlns="http://www.w3.org/2000/svg" xmlns:xlink="http://www.w3.org/1999/xlink" width="1080" zoomAndPan="magnify" viewBox="0 0 810 809.999993" height="1080" preserveAspectRatio="xMidYMid meet" version="1.0"><defs><clipPath id="7cb40df0dc"><path d="M 4.261719 0 L 809.761719 0 L 809.761719 810 L 4.261719 810 Z M 4.261719 0 " clip-rule="nonzero"/></clipPath></defs><g clip-path="url(#7cb40df0dc)"><rect x="-81" width="972" fill="#fcfcfc" y="-80.999999" height="971.999992" fill-opacity="1"/></g><path fill="#100f0d" d="M 684.511719 302.265625 L 684.511719 537.042969 C 684.511719 620.996094 616.449219 689.0625 532.507812 689.0625 L 297.757812 689.0625 C 213.804688 689.0625 145.742188 620.996094 145.742188 537.042969 L 145.742188 302.265625 C 145.742188 218.300781 213.804688 150.234375 297.757812 150.234375 L 532.507812 150.234375 C 616.449219 150.234375 684.511719 218.300781 684.511719 302.265625 " fill-opacity="1" fill-rule="nonzero"/><path fill="#fcfcfd" d="M 409.75 441.867188 L 397.820312 424.402344 L 305.132812 288.785156 L 344.421875 288.785156 L 419.996094 398.363281 L 431.972656 415.734375 L 524.9375 550.515625 L 484.007812 550.515625 Z M 444.699219 400.761719 L 432.738281 383.414062 L 354.386719 269.804688 L 269.175781 269.804688 L 385.070312 439.375 L 397.015625 456.855469 L 473.996094 569.492188 L 561.078125 569.492188 L 444.699219 400.761719 " fill-opacity="1" fill-rule="nonzero"/><path fill="#fcfcfd" d="M 397.820312 424.402344 L 409.75 441.867188 L 397.015625 456.855469 L 301.257812 569.492188 L 274.234375 569.492188 L 385.070312 439.375 L 397.820312 424.402344 " fill-opacity="1" fill-rule="nonzero"/><path fill="#fcfcfd" d="M 556.027344 269.804688 L 444.699219 400.761719 L 431.972656 415.734375 L 419.996094 398.363281 L 432.738281 383.414062 L 529.5 269.804688 L 556.027344 269.804688 " fill-opacity="1" fill-rule="nonzero"/></svg>