<svg xmlns="http://www.w3.org/2000/svg" xmlns:xlink="http://www.w3.org/1999/xlink" width="1920" zoomAndPan="magnify" viewBox="0 0 1440 809.999993" height="1080" preserveAspectRatio="xMidYMid meet" version="1.0"><defs><g/><clipPath id="827c8c71be"><path d="M 347.910156 45 L 1012 45 L 1012 800.152344 L 347.910156 800.152344 Z M 347.910156 45 " clip-rule="nonzero"/></clipPath><clipPath id="f9f5cc50d2"><path d="M 782 95 L 1020.480469 95 L 1020.480469 574 L 782 574 Z M 782 95 " clip-rule="nonzero"/></clipPath></defs><g fill="#804f3b" fill-opacity="1"><g transform="translate(1369.26568, 757.29999)"><g><path d="M 1.21875 -2.46875 L 7.96875 -9.34375 C 9.738281 -11.175781 11.085938 -12.960938 12.015625 -14.703125 C 12.941406 -16.441406 13.40625 -18.238281 13.40625 -20.09375 C 13.40625 -21.96875 13.003906 -23.335938 12.203125 -24.203125 C 11.410156 -25.066406 10.328125 -25.5 8.953125 -25.5 C 7.890625 -25.5 6.960938 -25.210938 6.171875 -24.640625 C 5.378906 -24.066406 4.984375 -23.3125 4.984375 -22.375 C 4.984375 -21.238281 5.550781 -20.394531 6.6875 -19.84375 C 6.6875 -19.070312 6.453125 -18.484375 5.984375 -18.078125 C 5.515625 -17.671875 4.957031 -17.46875 4.3125 -17.46875 C 3.632812 -17.46875 3.050781 -17.71875 2.5625 -18.21875 C 2.070312 -18.71875 1.828125 -19.40625 1.828125 -20.28125 C 1.828125 -21.4375 2.175781 -22.46875 2.875 -23.375 C 3.582031 -24.28125 4.519531 -24.984375 5.6875 -25.484375 C 6.863281 -25.984375 8.125 -26.234375 9.46875 -26.234375 C 12.070312 -26.234375 14.003906 -25.617188 15.265625 -24.390625 C 16.523438 -23.171875 17.15625 -21.554688 17.15625 -19.546875 C 17.15625 -18.335938 16.898438 -17.222656 16.390625 -16.203125 C 15.890625 -15.191406 15.289062 -14.3125 14.59375 -13.5625 C 13.90625 -12.820312 12.96875 -11.925781 11.78125 -10.875 L 10.875 -10.109375 L 3.234375 -3.359375 L 15.171875 -3.359375 L 16.484375 -8.09375 L 17.3125 -8.09375 L 17.3125 0 L 1.21875 0 Z M 1.21875 -2.46875 "/></g></g></g><path fill="#804f3b" d="M 873.605469 11.824219 C 821.371094 13.914062 806.046875 36.195312 805 46.996094 C 803.960938 57.785156 841.5625 134.046875 841.5625 134.046875 L 893.101562 130.910156 C 893.101562 130.910156 902.855469 111.410156 913.648438 89.128906 C 924.4375 66.839844 925.835938 9.734375 873.605469 11.824219 Z M 660.195312 309.535156 L 617.21875 142.398438 C 615.636719 136.25 610.101562 131.945312 603.75 131.925781 L 374.246094 131.3125 C 364.890625 131.285156 358.167969 140.289062 360.847656 149.25 L 410.992188 317.003906 C 412.757812 322.910156 418.1875 326.953125 424.351562 326.953125 L 646.691406 326.953125 C 655.800781 326.953125 662.464844 318.355469 660.195312 309.535156 Z M 757.121094 773.011719 L 722.992188 791.390625 C 723.105469 793.550781 723.175781 795.667969 723.175781 797.734375 L 612.445312 797.734375 C 612.445312 797.734375 626.375 776.84375 654.925781 776.84375 C 683.480469 776.84375 681.390625 757.339844 681.390625 757.339844 L 716.769531 745.847656 C 716.769531 745.847656 718.164062 747.613281 718.800781 750.316406 L 741.976562 742.195312 C 741.976562 742.195312 753.46875 754.730469 757.121094 773.011719 " fill-opacity="1" fill-rule="nonzero"/><path fill="#ede0d4" d="M 761.476562 397.292969 L 615.230469 397.292969 L 615.230469 392.414062 L 556.539062 392.414062 C 543 392.414062 533.210938 379.488281 536.878906 366.457031 L 548.101562 326.605469 L 645.648438 326.605469 C 654.660156 326.605469 661.257812 318.101562 659.007812 309.375 L 653.167969 286.65625 L 403.519531 286.65625 L 412.515625 316.761719 C 414.261719 322.605469 419.640625 326.605469 425.734375 326.605469 L 471.324219 326.605469 L 459.492188 370.476562 C 455.847656 383.996094 466.03125 397.292969 480.042969 397.292969 L 349.269531 397.292969 L 349.269531 455.792969 L 761.476562 455.792969 Z M 992.6875 458.574219 L 849.921875 439.082031 C 849.921875 439.082031 686.261719 481.5625 646.570312 490.609375 C 606.875 499.667969 584.585938 527.523438 599.910156 579.058594 C 615.230469 630.597656 661.191406 762.917969 661.191406 762.917969 L 717.269531 746.535156 L 719.257812 751.113281 L 756.601562 738.539062 L 719.839844 564.4375 C 741.183594 564.4375 772.789062 564.4375 819.28125 564.4375 C 943.246094 564.4375 993.734375 581.847656 992.6875 458.574219 Z M 583.832031 221.113281 C 580.402344 213.257812 576.585938 205.695312 572.566406 198.46875 L 583.886719 221.449219 C 583.886719 221.449219 583.863281 221.308594 583.832031 221.113281 Z M 517.726562 125.34375 L 621.5 125.34375 C 621.5 125.34375 650.21875 138.554688 670.945312 179.308594 C 691.839844 220.402344 701.585938 269.847656 701.585938 269.847656 L 598.164062 269.847656 C 597.863281 267.695312 597.496094 265.550781 597.101562 263.410156 L 581.101562 282.730469 C 581.101562 282.730469 579.011719 280.644531 562.648438 253.828125 C 546.542969 227.441406 571.21875 198.386719 572.015625 197.464844 C 548.246094 155.117188 517.726562 125.34375 517.726562 125.34375 Z M 801.324219 117.773438 L 792.121094 118.027344 L 802.054688 103.664062 L 805 46.996094 L 826.941406 57.09375 C 826.941406 57.09375 826.246094 82.859375 845.742188 92.957031 L 852.007812 73.105469 C 852.007812 73.105469 869.421875 71.019531 868.730469 87.039062 C 868.578125 90.46875 867.726562 93.546875 866.480469 96.273438 C 858.785156 113.042969 870.824219 132.625 889.238281 131.414062 C 890.507812 131.332031 891.792969 131.164062 893.101562 130.910156 L 894.839844 155.988281 L 849.578125 165.035156 L 849.921875 147.273438 L 834.941406 153.1875 C 818 159.875 799.8125 146.796875 800.757812 128.601562 L 801.324219 117.773438 " fill-opacity="1" fill-rule="nonzero"/><path fill="#c84b31" d="M 821.371094 446.5625 L 796.300781 291.4375 C 796.300781 291.4375 717.605469 365.953125 698.796875 382.667969 C 679.996094 399.382812 654.226562 402.867188 634.035156 376.402344 C 613.835938 349.933594 562.996094 271.9375 562.996094 271.9375 L 604.785156 254.527344 L 664.671875 331.132812 C 664.671875 331.132812 752.421875 240.601562 774.710938 219.011719 C 796.992188 197.421875 839.472656 181.398438 839.472656 181.398438 L 842.960938 163.296875 L 896.585938 139.617188 L 904.246094 167.472656 C 904.246094 167.472656 939.066406 187.671875 954.382812 196.722656 C 969.707031 205.777344 973.882812 225.277344 977.371094 252.4375 C 980.851562 279.59375 997.5625 427.9375 999.652344 456.488281 C 1001.742188 485.042969 923.746094 529.613281 837.386719 443.953125 L 821.371094 446.5625 " fill-opacity="1" fill-rule="nonzero"/><g clip-path="url(#827c8c71be)"><path fill="#804f3b" d="M 570.375 197.324219 C 566.425781 202.285156 546.304688 229.652344 561.492188 254.539062 C 563.789062 258.304688 565.796875 261.140625 567.5625 263.644531 C 568.789062 265.371094 569.894531 266.925781 570.882812 268.515625 C 571.144531 268.921875 571.589844 269.148438 572.039062 269.148438 C 572.289062 269.148438 572.535156 269.078125 572.761719 268.941406 C 573.398438 268.539062 573.589844 267.703125 573.1875 267.066406 C 572.167969 265.441406 571.035156 263.839844 569.785156 262.070312 C 568.039062 259.605469 566.058594 256.804688 563.808594 253.121094 C 550.289062 230.980469 566.851562 206.410156 571.777344 199.941406 L 582.667969 222.046875 C 582.972656 222.65625 583.671875 222.949219 584.3125 222.738281 C 584.960938 222.527344 585.347656 221.875 585.226562 221.207031 C 585.203125 221.066406 582.757812 207.480469 580.675781 199.515625 C 579.914062 196.574219 580.492188 194.925781 581.398438 194.59375 C 582.480469 194.214844 584.328125 195.269531 585.445312 197.648438 C 587.128906 201.21875 587.449219 201.820312 589.566406 205.765625 C 590.992188 208.425781 593.253906 212.636719 597.3125 220.335938 C 606.914062 238.550781 596.359375 256.03125 596.25 256.203125 C 595.851562 256.84375 596.054688 257.675781 596.691406 258.074219 C 597.324219 258.46875 598.164062 258.273438 598.558594 257.632812 C 599.03125 256.867188 610.058594 238.6875 599.71875 219.074219 C 595.648438 211.359375 593.386719 207.140625 591.960938 204.476562 C 589.824219 200.507812 589.550781 200 587.90625 196.492188 C 586.023438 192.488281 582.734375 191.222656 580.480469 192.042969 C 578.464844 192.773438 576.769531 195.300781 578.046875 200.203125 C 578.820312 203.15625 579.640625 206.894531 580.371094 210.425781 C 578.238281 206.074219 576 201.816406 573.691406 197.675781 L 573.269531 196.816406 C 573.226562 196.734375 573.152344 196.683594 573.09375 196.609375 C 553.21875 161.308594 528.53125 134.519531 520.972656 126.699219 L 621.1875 126.699219 C 624.066406 128.136719 650.488281 142.085938 669.734375 179.925781 C 688.1875 216.230469 698.023438 259.632812 699.914062 268.488281 L 617.332031 268.488281 C 616.585938 268.488281 615.976562 269.097656 615.976562 269.847656 C 615.976562 270.597656 616.585938 271.207031 617.332031 271.207031 L 701.585938 271.207031 C 701.992188 271.207031 702.378906 271.023438 702.640625 270.710938 C 702.894531 270.394531 702.996094 269.980469 702.917969 269.585938 C 702.824219 269.09375 692.890625 219.480469 672.152344 178.699219 C 651.453125 137.984375 623.257812 124.648438 622.066406 124.105469 C 621.886719 124.019531 621.695312 123.984375 621.5 123.984375 L 517.726562 123.984375 C 517.175781 123.984375 516.679688 124.3125 516.472656 124.828125 C 516.261719 125.34375 516.386719 125.925781 516.78125 126.3125 C 517.117188 126.644531 547 156.03125 570.375 197.324219 Z M 657.625 322.097656 C 660.519531 318.367188 661.503906 313.605469 660.324219 309.035156 L 654.488281 286.3125 C 654.296875 285.582031 653.566406 285.152344 652.832031 285.335938 C 652.105469 285.527344 651.660156 286.261719 651.851562 286.988281 L 657.695312 309.714844 C 658.660156 313.464844 657.851562 317.363281 655.476562 320.433594 Z M 994.679688 753.894531 L 933.550781 565.535156 C 933.378906 564.996094 933.554688 564.429688 933.960938 564.082031 C 915.4375 567.082031 892.339844 566.828125 864.167969 566.335938 C 864.753906 566.613281 865.085938 567.269531 864.894531 567.910156 L 810.613281 753.894531 L 897.316406 753.894531 L 897.316406 571.394531 C 897.316406 570.644531 897.917969 570.035156 898.675781 570.035156 C 899.425781 570.035156 900.035156 570.644531 900.035156 571.394531 L 900.035156 753.894531 Z M 717.949219 565.792969 L 678.960938 565.792969 L 724.488281 744.476562 C 724.671875 745.179688 724.261719 745.90625 723.554688 746.109375 L 719.5 747.296875 L 720.445312 749.421875 L 755.019531 737.644531 Z M 500.984375 398.6875 L 500.984375 454.433594 L 760.117188 454.433594 L 760.117188 398.652344 L 500.976562 398.652344 C 500.976562 398.664062 500.984375 398.675781 500.984375 398.6875 Z M 498.265625 454.433594 L 498.265625 398.6875 C 498.265625 398.675781 498.273438 398.664062 498.273438 398.652344 L 350.628906 398.652344 L 350.628906 454.433594 Z M 480.042969 395.933594 L 613.875 395.933594 L 613.875 393.773438 L 556.539062 393.773438 C 549.65625 393.773438 543.332031 390.632812 539.171875 385.144531 C 535.019531 379.65625 533.703125 372.71875 535.570312 366.09375 L 546.304688 327.964844 L 472.65625 327.964844 L 460.808594 370.839844 C 459.179688 376.863281 460.425781 383.167969 464.230469 388.128906 C 468.027344 393.089844 473.792969 395.933594 480.042969 395.933594 Z M 1010.867188 799.378906 C 1010.734375 799.421875 1010.585938 799.441406 1010.449219 799.441406 C 1009.875 799.441406 1009.34375 799.078125 1009.160156 798.5 L 995.5625 756.609375 L 900.035156 756.609375 L 900.035156 799.128906 C 900.035156 799.878906 899.425781 800.488281 898.675781 800.488281 C 897.917969 800.488281 897.316406 799.878906 897.316406 799.128906 L 897.316406 756.609375 L 809.820312 756.609375 L 797.601562 798.464844 C 797.429688 799.054688 796.886719 799.441406 796.300781 799.441406 C 796.175781 799.441406 796.046875 799.421875 795.921875 799.382812 C 795.195312 799.175781 794.785156 798.425781 794.992188 797.703125 L 807.128906 756.140625 C 806.917969 755.898438 806.777344 755.59375 806.777344 755.253906 C 806.777344 754.636719 807.199219 754.132812 807.761719 753.96875 L 862.289062 567.152344 C 862.398438 566.761719 862.675781 566.472656 863.027344 566.316406 C 862.066406 566.296875 861.117188 566.277344 860.144531 566.257812 C 847.246094 566.035156 833.910156 565.792969 819.28125 565.792969 L 762.835938 565.792969 L 762.835938 798.082031 C 762.835938 798.832031 762.226562 799.441406 761.476562 799.441406 C 760.730469 799.441406 760.117188 798.832031 760.117188 798.082031 L 760.117188 565.792969 L 720.730469 565.792969 L 757.929688 738.253906 C 758.074219 738.925781 757.695312 739.605469 757.039062 739.828125 L 720.144531 752.402344 C 720 752.445312 719.855469 752.472656 719.707031 752.472656 C 719.1875 752.472656 718.691406 752.167969 718.464844 751.664062 L 716.871094 748.0625 L 661.574219 764.21875 C 661.445312 764.257812 661.320312 764.277344 661.191406 764.277344 C 660.628906 764.277344 660.105469 763.921875 659.910156 763.359375 C 659.445312 762.035156 613.757812 630.425781 598.609375 579.445312 C 591.234375 554.652344 592.128906 534.140625 601.273438 518.488281 C 609.746094 503.992188 624.882812 494.167969 646.265625 489.289062 C 666.609375 484.648438 716.546875 472.144531 760.117188 461.128906 L 760.117188 457.152344 L 500.984375 457.152344 L 500.984375 798.082031 C 500.984375 798.832031 500.375 799.441406 499.625 799.441406 C 498.875 799.441406 498.265625 798.832031 498.265625 798.082031 L 498.265625 457.152344 L 350.628906 457.152344 L 350.628906 798.082031 C 350.628906 798.832031 350.019531 799.441406 349.269531 799.441406 C 348.519531 799.441406 347.910156 798.832031 347.910156 798.082031 L 347.910156 397.292969 C 347.910156 396.542969 348.519531 395.933594 349.269531 395.933594 L 469.316406 395.933594 C 466.542969 394.441406 464.066406 392.378906 462.070312 389.78125 C 457.753906 384.140625 456.335938 376.976562 458.183594 370.121094 L 469.835938 327.964844 L 425.734375 327.964844 C 419.085938 327.964844 413.117188 323.519531 411.214844 317.148438 L 402.214844 287.042969 C 402 286.328125 402.40625 285.5625 403.128906 285.347656 C 403.839844 285.140625 404.605469 285.546875 404.820312 286.261719 L 413.816406 316.375 C 415.378906 321.59375 420.28125 325.246094 425.734375 325.246094 L 598.101562 325.246094 L 600.132812 327.964844 L 549.128906 327.964844 L 538.1875 366.832031 C 536.554688 372.621094 537.707031 378.707031 541.335938 383.507812 C 544.976562 388.308594 550.511719 391.054688 556.539062 391.054688 L 615.230469 391.054688 C 615.980469 391.054688 616.589844 391.664062 616.589844 392.414062 L 616.589844 395.933594 L 761.476562 395.933594 C 762.226562 395.933594 762.835938 396.542969 762.835938 397.292969 L 762.835938 460.441406 C 802.113281 450.503906 835.53125 441.957031 836.234375 441.773438 C 836.972656 441.582031 837.703125 442.027344 837.886719 442.75 C 838.078125 443.480469 837.640625 444.21875 836.910156 444.410156 C 835.410156 444.796875 686.128906 482.984375 646.867188 491.9375 C 626.25 496.636719 611.703125 506.035156 603.617188 519.859375 C 594.875 534.839844 594.0625 554.625 601.210938 578.671875 C 615.570312 626.957031 657.375 747.757812 662.050781 761.246094 L 721.535156 743.875 L 675.894531 564.773438 C 675.792969 564.367188 675.878906 563.933594 676.132812 563.605469 C 676.394531 563.265625 676.789062 563.078125 677.207031 563.078125 L 819.28125 563.078125 C 833.9375 563.078125 847.285156 563.3125 860.195312 563.539062 C 914.246094 564.511719 949.953125 565.148438 970.152344 545.136719 C 985.179688 530.246094 991.707031 503.558594 991.335938 458.589844 C 991.328125 457.839844 991.929688 457.222656 992.679688 457.214844 C 992.679688 457.214844 992.6875 457.214844 992.691406 457.214844 C 993.4375 457.214844 994.046875 457.820312 994.050781 458.570312 C 994.4375 504.328125 987.65625 531.625 972.0625 547.070312 C 962.835938 556.210938 950.679688 561.210938 935.316406 563.863281 C 935.6875 564.011719 936 564.289062 936.132812 564.695312 L 1011.742188 797.664062 C 1011.972656 798.375 1011.585938 799.144531 1010.867188 799.378906 Z M 620.203125 276.984375 L 580.503906 296.488281 C 579.832031 296.816406 579.550781 297.628906 579.882812 298.300781 C 580.121094 298.785156 580.605469 299.0625 581.105469 299.0625 C 581.304688 299.0625 581.507812 299.019531 581.703125 298.925781 L 621.398438 279.425781 C 622.070312 279.09375 622.351562 278.28125 622.019531 277.609375 C 621.695312 276.933594 620.878906 276.65625 620.203125 276.984375 Z M 838.171875 181.785156 C 838.34375 182.378906 838.890625 182.757812 839.472656 182.757812 C 839.601562 182.757812 839.734375 182.746094 839.863281 182.707031 L 899.054688 165.296875 C 899.773438 165.085938 900.1875 164.332031 899.976562 163.605469 C 899.765625 162.890625 899.003906 162.46875 898.289062 162.691406 L 839.09375 180.097656 C 838.375 180.308594 837.964844 181.0625 838.171875 181.785156 Z M 792.160156 119.386719 L 799.890625 119.171875 L 799.398438 128.53125 C 798.929688 137.539062 803.027344 146.0625 810.347656 151.324219 C 817.664062 156.597656 827.046875 157.765625 835.441406 154.449219 L 848.53125 149.292969 L 848.300781 160.769531 C 848.289062 161.519531 848.878906 162.140625 849.632812 162.152344 C 849.640625 162.152344 849.648438 162.152344 849.660156 162.152344 C 850.398438 162.152344 851 161.5625 851.019531 160.820312 L 851.285156 147.304688 C 851.292969 146.847656 851.074219 146.425781 850.703125 146.164062 C 850.328125 145.902344 849.851562 145.851562 849.425781 146.011719 L 834.445312 151.921875 C 826.925781 154.894531 818.5 153.847656 811.933594 149.121094 C 805.367188 144.398438 801.691406 136.753906 802.113281 128.667969 L 802.675781 117.84375 C 802.695312 117.460938 802.554688 117.09375 802.289062 116.820312 C 802.027344 116.546875 801.597656 116.402344 801.285156 116.414062 L 794.765625 116.59375 L 803.171875 104.4375 C 803.316406 104.226562 803.402344 103.988281 803.414062 103.734375 L 804.644531 80.136719 C 804.664062 80.269531 804.691406 80.402344 804.753906 80.53125 C 805.109375 81.191406 805.933594 81.449219 806.589844 81.101562 C 806.773438 81.011719 811.015625 78.875 814.480469 84.289062 C 814.742188 84.691406 815.179688 84.910156 815.625 84.910156 C 815.878906 84.910156 816.125 84.84375 816.359375 84.703125 C 816.988281 84.296875 817.171875 83.457031 816.765625 82.824219 C 812.933594 76.828125 807.609375 77.5 805.332031 78.695312 C 805.007812 78.867188 804.785156 79.144531 804.675781 79.46875 L 806.257812 49.066406 L 825.582031 57.960938 C 825.644531 62.777344 826.953125 84.753906 845.121094 94.164062 C 845.476562 94.347656 845.894531 94.367188 846.261719 94.214844 C 846.636719 94.054688 846.917969 93.75 847.039062 93.363281 L 853.03125 74.402344 C 855.160156 74.308594 860.707031 74.429688 864.21875 77.691406 C 866.488281 79.800781 867.542969 82.925781 867.371094 86.976562 C 867.238281 89.972656 866.527344 92.914062 865.242188 95.707031 C 861.300781 104.296875 862.148438 114.421875 867.457031 122.121094 C 872.527344 129.46875 880.507812 133.347656 889.328125 132.773438 C 890.167969 132.714844 891.011719 132.625 891.847656 132.503906 L 892.425781 140.824219 C 892.476562 141.574219 893.132812 142.09375 893.875 142.085938 C 894.628906 142.03125 895.1875 141.382812 895.136719 140.632812 L 894.457031 130.816406 C 894.433594 130.429688 894.238281 130.074219 893.933594 129.835938 C 893.621094 129.597656 893.238281 129.5 892.839844 129.578125 C 891.625 129.8125 890.382812 129.976562 889.144531 130.054688 C 881.320312 130.582031 874.203125 127.121094 869.695312 120.578125 C 864.929688 113.664062 864.167969 104.570312 867.710938 96.835938 C 869.140625 93.71875 869.941406 90.441406 870.082031 87.097656 C 870.296875 82.199219 868.9375 78.363281 866.054688 75.683594 C 860.734375 70.757812 852.21875 71.722656 851.851562 71.761719 C 851.316406 71.824219 850.878906 72.191406 850.714844 72.699219 L 844.949219 90.964844 C 827.890625 80.886719 828.292969 57.371094 828.296875 57.125 C 828.3125 56.585938 828.007812 56.082031 827.511719 55.855469 L 805.570312 45.757812 C 805.164062 45.574219 804.691406 45.597656 804.300781 45.828125 C 803.914062 46.0625 803.671875 46.476562 803.648438 46.925781 L 800.722656 103.210938 L 791.003906 117.253906 C 790.714844 117.675781 790.679688 118.222656 790.921875 118.675781 C 791.171875 119.125 791.613281 119.386719 792.160156 119.386719 Z M 815.304688 122.453125 C 811.628906 127.515625 806.703125 127.632812 806.480469 127.632812 C 805.730469 127.640625 805.128906 128.242188 805.128906 128.992188 C 805.128906 129.75 805.730469 130.351562 806.480469 130.351562 C 806.746094 130.351562 812.976562 130.28125 817.511719 124.046875 C 817.949219 123.445312 817.816406 122.59375 817.207031 122.15625 C 816.601562 121.714844 815.75 121.84375 815.304688 122.453125 Z M 822.34375 266.113281 C 822.871094 266.652344 822.855469 267.511719 822.316406 268.039062 L 797.246094 292.410156 C 796.980469 292.671875 796.644531 292.796875 796.300781 292.796875 C 795.945312 292.796875 795.589844 292.65625 795.324219 292.382812 C 794.800781 291.84375 794.816406 290.988281 795.347656 290.464844 L 820.425781 266.089844 C 820.964844 265.566406 821.820312 265.582031 822.34375 266.113281 " fill-opacity="1" fill-rule="nonzero"/></g><g clip-path="url(#f9f5cc50d2)"><path fill="#804f3b" d="M 810.226562 99.574219 C 811.382812 99.574219 812.316406 98.640625 812.316406 97.484375 C 812.316406 96.328125 811.382812 95.394531 810.226562 95.394531 C 809.070312 95.394531 808.136719 96.328125 808.136719 97.484375 C 808.136719 98.640625 809.070312 99.574219 810.226562 99.574219 Z M 958.5625 573.492188 C 887.371094 573.492188 817.058594 572.613281 790.933594 572.253906 C 784.960938 572.164062 780.78125 566.125 783.023438 560.582031 C 786.339844 552.394531 793.613281 542.847656 809.527344 542.847656 C 837.386719 542.847656 845.050781 542.847656 865.941406 542.847656 C 908.421875 542.847656 920.265625 436.292969 955.78125 436.292969 C 970.40625 436.292969 987.816406 436.292969 1003.136719 436.292969 C 1018.453125 436.292969 1048.402344 573.492188 958.5625 573.492188 " fill-opacity="1" fill-rule="nonzero"/></g></svg>